# xmcd
#
# Track frame offsets: 
#        150
#        22750
#        44817
#        64439
#        84976
#        108558
#        130235
#        145275
#        162415
#        194952
#        214012
#        227874
#        244954
#        270396
#        318886
#        330888
#
# Disc length: 4676 seconds
#
# Revision: 0
# Processed by: cddbd v1.5.2PL0 Copyright (c) Steve Scherf et al.
# Submitted via: ExactAudioCopy v1.0b3
#
DISCID=ec124210
DTITLE=Beth Hart - The Best of
DYEAR=2013
DGENRE=Blues Rock
TTITLE0=Your Heart Is As Black As Night
TTITLE1=One Eyed Chicken
TTITLE2=Over You
TTITLE3=Soul Shine
TTITLE4=I'll Take Care Of You
TTITLE5=Baddest Blues
TTITLE6=Bottle of Jesus
TTITLE7=Better Man
TTITLE8=Caught Out In The Rain
TTITLE9=Lay Your Hands On Me
TTITLE10=With You Every Day
TTITLE11=If God Only Knew
TTITLE12=Monkey Back
TTITLE13=Am I The One
TTITLE14=Chocolate Jesus
TTITLE15=Mama
EXTD=
EXTT0=
EXTT1=
EXTT2=
EXTT3=
EXTT4=
EXTT5=
EXTT6=
EXTT7=
EXTT8=
EXTT9=
EXTT10=
EXTT11=
EXTT12=
EXTT13=
EXTT14=
EXTT15=
PLAYORDER=
